<?xml version="1.0" encoding="utf-8"?>
<!-- Generator: Adobe Illustrator 26.1.0, SVG Export Plug-In . SVG Version: 6.00 Build 0)  -->
<svg version="1.1" id="Layer_1" xmlns="http://www.w3.org/2000/svg" xmlns:xlink="http://www.w3.org/1999/xlink" x="0px" y="0px"
	 viewBox="0 0 1712.5 490.6" style="enable-background:new 0 0 1712.5 490.6;" xml:space="preserve">
<style type="text/css">
	.st0{fill:#FFFFFF;}
</style>
<g>
	<g>
		<g>
			<path class="st0" d="M177.3,8.3v95.9H66.9V8.3H10.6v243.2h56.3v-99.7h110.5v99.7h56.3V8.3H177.3z"/>
			<path class="st0" d="M409.1,4.1C332.3,4.1,276,57.6,276,129.9c0,28.7,8.9,54.5,24.4,75.1l30.5-20.5l6.4-4.3l6,4.9l6.5,5.3l5.1-4
				c-13.7-13.7-21.9-33.2-21.9-56.4c0-46.2,32.6-77.8,76.1-77.8c43.4,0,76.1,31.6,76.1,77.8c0,23.3-8.3,42.9-22.1,56.6l15.5,11.3
				l17.8-3l4-0.7l3.4,2.2l13.7,8.9c15.7-20.6,24.7-46.5,24.7-75.4C542.1,57.3,485.5,4.1,409.1,4.1z"/>
			<path class="st0" d="M745.4,173.3c31.6-13.6,50-40.3,50-76.8c0-54.5-40.7-88.3-105.6-88.3H584.5c0,0,12.1,71.3,81.6,71.3
				l-17.6-36.9h17.2l8.6,9.3H687c2.8,0,5,2.2,5,5c0,1.4-0.5,2.6-1.5,3.5c-0.9,0.9-2.2,1.5-3.6,1.5h-3.3l16.3,17.5h30.5
				c5.8,0,10.5,4.7,10.5,10.5c0,2.9-1.2,5.5-3.1,7.4c-1.9,1.9-4.5,3.1-7.4,3.1h-30.5l-16.3,17.6h3.3c1.4,0,2.7,0.5,3.6,1.5
				c0.9,0.9,1.5,2.2,1.5,3.6c0,2.8-2.2,5-5,5h-12.6l-8.6,9.3h-17.2l17.6-36.9c0,0-81.6-3.7-81.6,64.9v86h56.3v-67.7h51.8l46.9,67.7
				h60.4L745.4,173.3z"/>
			<path class="st0" d="M839.9,8.3v243.2h56.3V8.3H839.9z"/>
			<path class="st0" d="M1012.6,205.6l133.1-160.9V8.3H941v45.9h130.6L938.2,215v36.5h212.6v-45.9H1012.6z"/>
			<path class="st0" d="M1230.9,93.4c-0.3,0.3-0.5,0.7-0.7,1.1c-1.8,4.5,4.5,11.9,16.3,20.2c1.8-6.9,4.9-13.4,8.9-19
				c1-1.4,2-2.7,3.1-4C1244.2,89.1,1233.9,89.5,1230.9,93.4z M1375.4,144.8C1375.4,144.8,1375.4,144.8,1375.4,144.8
				c-3.1-3.3-7.5-7-13.1-10.9c0,0.4-0.1,0.8-0.1,1.1c-0.7,8.3-3.2,16.2-7,23.1c13.4,2,22.5,1,24.2-3.4
				C1380.5,152.2,1379,148.7,1375.4,144.8z M1375.4,144.8C1375.4,144.8,1375.4,144.8,1375.4,144.8c-3.1-3.3-7.5-7-13.1-10.9
				c0,0.4-0.1,0.8-0.1,1.1c-0.7,8.3-3.2,16.2-7,23.1c13.4,2,22.5,1,24.2-3.4C1380.5,152.2,1379,148.7,1375.4,144.8z M1230.9,93.4
				c-0.3,0.3-0.5,0.7-0.7,1.1c-1.8,4.5,4.5,11.9,16.3,20.2c1.8-6.9,4.9-13.4,8.9-19c1-1.4,2-2.7,3.1-4
				C1244.2,89.1,1233.9,89.5,1230.9,93.4z M1302.3,4.1c-76.8,0-133.1,53.5-133.1,125.8c0,72.3,56.3,125.8,133.1,125.8
				c76.5,0,133.1-53.2,133.1-125.8C1435.4,57.3,1378.7,4.1,1302.3,4.1z M1303.5,188.8c-27.2,0-50-18.4-56.8-43.4
				c11.4,5.6,24.4,11,38.4,15.7c20.7,7,40.5,11.4,57.1,13.3C1331.8,183.4,1318.3,188.8,1303.5,188.8z M1393,167.2
				c-2.7,6.8-14.1,9.3-30.5,8.1h0c-5.6-0.4-11.8-1.3-18.4-2.6c-15.5-3-33.6-8.4-52.2-15.9c-17.9-7.2-34.1-15.5-47.1-23.8
				c-22.1-14-35.3-28.1-33.5-37.4c0.1-0.5,0.3-1.1,0.4-1.5c3.7-9.2,23.2-10.6,49.7-5.3c10.7-11,25.7-17.8,42.2-17.8
				c32.5,0,58.9,26.4,58.9,58.9c0,0,0,0,0,0C1384.2,144.2,1396.6,158.3,1393,167.2z M1375.4,144.7c-3-3.3-7.4-7-13-10.9
				c0,0.4-0.1,0.8-0.1,1.1c-0.7,8.3-3.2,16.2-7,23.1c13.4,2,22.5,1,24.2-3.4C1380.5,152.2,1379,148.7,1375.4,144.7
				C1375.4,144.8,1375.4,144.8,1375.4,144.7z M1230.9,93.4c-0.3,0.3-0.5,0.7-0.7,1.1c-1.8,4.5,4.5,11.9,16.3,20.2
				c1.8-6.9,4.9-13.4,8.9-19c1-1.4,2-2.7,3.1-4C1244.2,89.1,1233.9,89.5,1230.9,93.4z"/>
			<path class="st0" d="M1645.2,8.3v147.7L1524.3,8.3h-46.6v243.2h55.6V103.8l121.2,147.7h46.2V8.3H1645.2z"/>
		</g>
		<path class="st0" d="M407.5,158.6l13.8,10.1c-5.3,3.7-11.7,5.9-18.6,5.9c-4.4,0-8.7-0.9-12.5-2.5L407.5,158.6z"/>
		<path class="st0" d="M435.2,142.1c0,7.2-2.3,13.8-6.3,19.2l-15.2-11.1l-6.3-4.7l-6.2,4.8l-20.3,15.8c-6.5-5.9-10.7-14.5-10.7-24.1
			c0-18,14.5-32.5,32.5-32.5C420.6,109.6,435.2,124.1,435.2,142.1z"/>
		<g>
			<polygon class="st0" points="574.4,254.7 503.9,220.3 497.5,217.1 485.1,219.6 491.6,230.4 496.2,238.1 488.4,232.6 442.1,200.8 
				412.2,180.2 420.4,207 432.2,245.4 379.8,202.9 362.6,214.7 374.9,225.1 331.8,212.2 314.5,220.5 249.9,251.6 307.1,213 
				336.7,193.1 349.6,203.6 363,193.2 390.2,172.1 407.5,158.6 421.3,168.7 454.9,193.4 475.9,208.8 498.1,205.1 510.8,213.3 			"/>
		</g>
		<g>
			<path class="st0" d="M416.1,329.7c-1.5,0.5-2.7,0.6-3.5,0.2c-0.8-0.4-1.4-1-1.7-1.9c-0.4-0.9-0.6-1.9-0.6-3
				c0-1.1,0.1-2.2,0.2-3.2c0.1-0.9,0.4-1.9,0.7-3.1c0.3-1.2,0.7-2.3,1.3-3.3c0.5-1,1.1-1.9,1.8-2.6c0.7-0.7,1.6-1.2,2.8-1.5
				c5.9-1,11.7-1.8,17.3-2.3c5.6-0.5,10.7-0.9,15.2-1.2c5.2-0.4,10.1-0.6,14.9-0.6c1,0,2.1,0,3.1,0.1c1,0.1,2.1,0.1,3.1,0.1
				c1.2-0.3,2.1-0.4,2.8-0.3c0.7,0.1,1.3,0.2,1.8,0.3c3.7,0.1,7.6,0.3,11.6,0.6c3.4,0.3,7.1,0.6,11.3,0.9c4.2,0.3,8.4,0.7,12.5,1.3
				c0.4,1,0.5,2.3,0.2,3.9c-0.1,0.8-0.3,1.5-0.4,2.3c-0.1,0.8-0.5,1.5-1,2.1c-0.4,0.6-0.9,1.3-1.5,1.8c-0.6,0.6-1.3,1.1-2,1.5
				c-4.4-0.1-8.6-0.2-12.7-0.3c-4.1-0.1-7.6-0.1-10.7-0.1h-10.5c-1.7,5.9-3.7,13.3-6.2,22c-2.5,8.7-4.9,17.9-7.5,27.5
				c-2.5,9.6-4.9,19.2-7.2,28.6c-2.3,9.5-4,18-5.3,25.6c-1.3,7.4-2.6,14.6-3.9,21.7c-0.5,3-1.1,6.1-1.6,9.3
				c-0.6,3.2-1.1,6.4-1.5,9.5c-0.5,3.1-0.9,6.1-1.3,8.9c-0.4,2.8-0.7,5.4-1,7.7c-2.1,1-4,1.8-5.8,2.4c-1.8,0.6-3.4,1-4.8,1.3
				c-1.7,0.4-3.2,0.6-4.6,0.6c-3.1,0-5-0.4-5.7-1.1c-0.7-0.7-0.8-2.1-0.3-4.2c0.4-1.8,1.5-6.7,3.5-14.7c0.8-3.4,1.8-7.6,3-12.7
				c1.2-5.1,2.7-11.3,4.4-18.6c1.7-7.3,3.7-15.8,6-25.6c2.3-9.7,5-20.9,7.9-33.6l13-53.8c-3.9,0.5-7.7,1.1-11.4,1.7
				c-3.7,0.6-7.3,1.3-10.5,2c-3.3,0.7-6.3,1.4-8.9,2C419.8,328.8,417.7,329.3,416.1,329.7z"/>
			<path class="st0" d="M545.6,420.1c-1.3,4.9-3,9.5-5.2,13.7c-2.2,4.3-4.8,7.9-7.8,11c-3,3.1-6.5,5.5-10.3,7.3
				c-3.8,1.7-8,2.6-12.5,2.6c-5.3,0-9.5-1.1-12.5-3.4c-3-2.3-5.3-5.1-6.8-8.4c-1.5-3.4-2.4-7-2.7-11c-0.3-4-0.5-7.7-0.5-11.2
				c0-2.4,0.3-5.2,0.9-8.1c0.6-3,1.4-6,2.4-9.1c1-3.1,2.4-6.2,4-9.3c1.6-3.1,3.5-5.9,5.7-8.5c0.8-2.2,2-4.1,3.6-5.8
				c1.6-1.7,3.5-3.1,5.6-4.2c2.1-1.1,4.4-1.9,6.9-2.5c2.4-0.6,4.8-0.9,7.2-0.9c0.4,0,0.7,0.1,1.1,0.2c0.3,0.1,0.7,0.3,1.1,0.4
				c1.7,0.1,3.8,0.8,6.3,1.9c2.5,1.2,5,2.9,7.4,5.2c2.4,2.3,4.4,5.3,6.1,8.8c1.7,3.5,2.5,7.8,2.5,12.9c0,1-0.1,2.3-0.2,3.8
				c-0.1,1.5-0.3,2.7-0.4,3.8c3-1.2,6.1-2.6,9.3-4.3c3.2-1.7,6.4-3.5,9.4-5.3c3-1.9,5.8-3.8,8.4-5.7c2.6-1.9,4.6-3.7,6.2-5.2
				c1.3-1.2,2.4-1.8,3.3-1.9c0.9-0.1,1.5,0.1,1.9,0.8c0.4,0.6,0.5,1.6,0.2,2.7c-0.3,1.2-1,2.5-2.1,3.9c-0.6,0.8-2.3,2.3-4.9,4.6
				c-2.6,2.3-5.8,4.8-9.4,7.5c-3.6,2.7-7.5,5.4-11.8,7.9C553.6,416.9,549.5,418.8,545.6,420.1z M500.5,424.7c0,2.3,0.1,4.6,0.4,6.9
				c0.3,2.3,0.8,4.3,1.5,6c0.8,1.7,1.8,3.2,3.1,4.3c1.3,1.1,3,1.6,5,1.6c2.3,0,4.5-0.5,6.4-1.6c1.9-1.1,3.7-2.5,5.2-4.3
				c1.5-1.7,2.9-3.7,4.2-6c1.2-2.3,2.3-4.6,3.2-7.1c-0.9,0.1-1.8,0.2-2.6,0.3c-0.8,0.1-1.8,0.1-2.8,0.1c-4.9,0-9.1-1.5-12.7-4.4
				c-3.6-2.9-6.3-6.6-8.2-11.1c-0.8,2.7-1.4,5.4-1.9,7.9C500.8,420,500.5,422.4,500.5,424.7z M512.9,390.7c-0.4,1.2-0.6,2.4-0.6,3.7
				c0,2.1,0.1,4.2,0.4,6.5c0.3,2.3,0.9,4.3,1.9,6.1c1,1.8,2.7,3.3,4.9,4.6c2.3,1.2,5.4,1.8,9.4,1.8c0.6,0,1.3,0,1.9-0.1
				c0.6-0.1,1.3-0.2,1.9-0.3c0.4-1.7,0.7-3.2,1.1-4.6c0.3-1.4,0.5-2.5,0.5-3.6c0.3-2.4,0.3-5,0-7.5c-0.3-2.6-0.7-4.9-1.5-7.1
				c-0.7-2.1-1.6-3.9-2.7-5.2c-1.1-1.4-2.4-2-4-2c-2.5,0-4.8,0.7-7.1,2C517,386.3,514.9,388.2,512.9,390.7z"/>
			<path class="st0" d="M590.3,454c-4.9,0-8.9-0.8-12-2.3c-3.1-1.5-5.5-3.5-7.3-5.7c-1.7-2.3-3-4.7-3.7-7.4
				c-0.7-2.6-1.1-5.1-1.1-7.3c0-3.9,0.3-8,1-12.3c0.6-4.3,1.4-8.3,2.3-12c0.9-3.7,1.7-6.8,2.4-9.4c0.7-2.6,1.2-4.2,1.5-4.8
				c1.2-3.7,2.7-7,4.5-9.8c1.9-2.8,4.5-4.7,7.8-5.7c1.3-0.3,2.6-0.5,4.1-0.8c1.2-0.1,2.4-0.2,3.6-0.2c1.2,0,2.4,0.2,3.4,0.6
				c-3.5,8.9-6.2,16.3-8.2,22.3c-2,5.9-3.5,10.8-4.5,14.5c-1.2,4.3-1.9,7.7-2.1,10.3c-0.6,5.8-0.1,10.2,1.5,13.2
				c1.7,3,5.1,4.5,10.3,4.5c3.4,0,6.6-1.3,9.7-3.8c3.1-2.5,5.9-5.8,8.5-9.8c-0.4-2.1-0.6-4.2-0.6-6.4c0-4.1,0.4-8.2,1.1-12.1
				c0.7-3.9,1.5-7.6,2.5-11c1-3.4,2-6.5,3.1-9.2c1.1-2.7,2-4.8,2.8-6.4c1.4-3.1,2.7-5,3.9-5.7c1.2-0.7,3-1.1,5.6-1.3
				c1-0.1,1.9-0.2,2.6-0.1c0.7,0.1,1.3,0.2,1.8,0.3c1.5,0.4,2.3,1.2,2.3,2.3c0,2.1-0.1,5.2-0.4,9.3c-0.3,4.1-1,8.4-2.3,12.8
				c-0.9,3.6-1.8,6.7-2.6,9.2c-0.8,2.5-1.6,4.6-2.4,6.4c-0.8,1.7-1.5,3.2-2.3,4.3c-0.8,1.1-1.5,2.1-2.1,3c0.3,3.9,0.6,7,1,9.3
				c0.4,2.3,0.9,4.1,1.5,5.3c0.6,1.2,1.3,2.1,2.1,2.5c0.8,0.5,1.8,0.7,2.8,0.7c1.8,0,3.9-0.9,6.4-2.6c2.4-1.7,5-3.9,7.6-6.6
				c2.6-2.6,5.3-5.5,7.9-8.7c2.6-3.2,5.1-6.2,7.3-9c2.2-2.8,4.1-5.3,5.6-7.5c1.5-2.1,2.5-3.5,2.9-4c0.9-1.2,1.8-1.9,2.6-2.1
				c0.8-0.3,1.5-0.2,2,0.3c0.5,0.5,0.8,1.2,0.9,2.1c0.1,1-0.2,2-0.9,3.2c-2.6,4.9-5.8,10.1-9.6,15.6c-3.8,5.5-7.9,10.5-12.2,15.2
				c-4.3,4.6-8.7,8.5-13.1,11.6c-4.4,3.1-8.5,4.6-12.4,4.6c-3.5,0-6.2-1.2-8.2-3.6c-2-2.4-3.7-5.8-5.1-10.4
				c-3,4.6-6.5,8.2-10.5,10.7C599.7,452.7,595.3,454,590.3,454z"/>
			<path class="st0" d="M651.9,449.9c-0.9,1.4-1.9,2.4-3,2.8c-1.1,0.5-2.1,0.5-2.9,0.2c-0.8-0.3-1.4-1-1.6-2c-0.3-1,0-2.3,0.8-3.9
				c0.4-0.8,1.3-2.5,2.6-5.2c1.4-2.7,3-6,4.8-9.8c1.9-3.8,3.9-7.9,6.1-12.4c2.2-4.5,4.3-8.7,6.3-12.7c2-4,3.8-7.6,5.5-10.7
				c1.7-3.2,2.9-5.4,3.7-6.9c-1.4-1.3-2.4-2.2-2.9-2.8c-0.5-0.6-0.9-1.8-1.2-3.8c-0.3-1.7,0.1-3.9,1.2-6.6c1-2.7,2.4-5.3,4.1-7.8
				c1.7-2.5,3.5-4.7,5.6-6.5c2.1-1.8,4.1-2.7,6-2.7c3.6,0,6.2,1.2,7.6,3.5c1.5,2.3,2.4,4.7,2.6,7.2c0.3,1.7,0.1,3.8-0.4,6.4
				c-0.5,2.6-1.5,4.9-2.9,7c0.4,0.3,0.9,0.6,1.5,0.9c0.6,0.3,1.7,0.5,3.1,0.5c2.1,0,3.5-0.1,4.4-0.4c0.8-0.3,2.2-0.4,4-0.4
				c2.2,0,4,0.6,5.4,1.6c1.4,1.1,2.6,2.5,3.5,4.1c0.9,1.6,1.6,3.4,2,5.2c0.5,1.9,0.7,3.6,0.9,5.1c0.4,3.2-0.5,6.6-2.5,10.1
				c-2.1,3.5-4.6,7.3-7.5,11.4c-1.8,2.6-3.6,5.5-5.4,8.7c-1.8,3.2-2.6,6.1-2.3,8.7c0.3,1.7,0.7,3,1.4,4.1c0.6,1,2.4,1.5,5.4,1.5
				c2.2,0,4.6-0.8,7.3-2.4c2.6-1.6,5.4-3.7,8.1-6.2c2.8-2.5,5.5-5.3,8.2-8.3c2.7-3,5.2-6,7.5-8.9c2.3-2.9,4.3-5.5,5.9-7.8
				c1.6-2.3,2.8-4,3.6-5c0.6-1,1.5-1.7,2.5-2.1c1-0.4,1.9-0.4,2.7,0c0.8,0.4,1.3,1.2,1.5,2.3c0.2,1.2-0.3,2.7-1.5,4.6
				c-0.8,1.3-2.1,3.4-4,6.2c-1.9,2.8-4.1,6-6.8,9.5c-2.6,3.5-5.6,7.1-8.8,10.7c-3.2,3.7-6.6,7-10.2,10.1c-3.6,3-7.1,5.5-10.6,7.5
				c-3.5,1.9-6.9,2.9-10.2,2.9c-3.4,0-6.1-0.6-8.3-1.9c-2.2-1.3-4-2.9-5.3-4.7c-1.4-1.9-2.3-3.9-2.9-6.2c-0.6-2.3-0.8-4.4-0.7-6.3
				c0.1-1.5,0.5-3.2,1.3-4.9c0.7-1.7,1.5-3.5,2.5-5.4c1-1.9,2-3.7,3.1-5.6c1.1-1.9,2.1-3.7,3-5.5c2.2-3.7,4-6.9,5.3-9.6
				c1.4-2.6,2-4.9,2-6.7c0-1.2-0.3-2.2-0.8-3.1c-0.5-0.9-1.4-1.4-2.5-1.4c-0.8,0-1.3,0-1.6,0.1c-0.3,0.1-0.6,0.1-1,0.1
				c-0.3,0-0.8,0-1.4,0.1c-0.6,0.1-1.5,0.1-2.6,0.1c-1.7,0-3.1-0.3-4.3-0.8c-1.2-0.5-2.3-0.9-3.3-1.2c-0.5,0.9-1.7,2.8-3.5,5.8
				c-1.8,3-3.9,6.5-6.3,10.5c-2.4,4-4.9,8.2-7.5,12.6c-2.6,4.4-5.1,8.5-7.5,12.3c-2.3,3.8-4.3,7-5.9,9.7
				C653.3,447.8,652.3,449.4,651.9,449.9z"/>
			<path class="st0" d="M767.1,444.3c0.8,0.5,1.8,0.8,3,0.8c1.2,0,2.5-0.3,3.7-0.8c1.2-0.5,2.4-1.2,3.5-2.1c1.1-0.9,1.9-2.1,2.4-3.5
				c0.5-1.4,0.5-3.5,0-6.1c-0.5-2.6-1.3-5.5-2.4-8.5c-1.1-3-2.3-6.1-3.6-9.2c-1.3-3.1-2.4-5.9-3.3-8.5c-0.8-1.9-1.4-3.7-1.9-5.4
				c-0.5-1.4-1-2.8-1.5-4.2c-0.5-1.4-0.8-2.3-1.1-2.8c-0.6,1-1.8,2.7-3.4,5c-1.6,2.3-3.4,4.7-5.2,7.3c-1.9,2.5-3.6,4.8-5.3,7
				c-1.7,2.1-2.8,3.6-3.5,4.4c-1,1.2-2,1.8-3,2c-1,0.2-1.8,0-2.4-0.6c-0.6-0.6-1-1.4-1.1-2.5c-0.1-1.1,0.4-2.4,1.5-4
				c0.8-1,1.9-2.7,3.5-4.9c1.5-2.3,3.1-4.6,4.6-7c1.5-2.4,3-4.5,4.3-6.4c1.3-1.9,2-3,2.1-3.4c0.3-1-0.1-2.4-1.1-4.1
				c-1-1.7-1.1-3.6-0.5-5.8c0.5-1.8,1.7-3.9,3.5-6.3c1.8-2.4,3.9-4.5,6.4-6.5c2.4-1.9,5-3.4,7.5-4.4c2.6-1,4.9-0.9,7,0.1
				c1.7,1,3,2.2,4.1,3.4c1,1.2,1.4,2.5,1.2,3.8c-0.3,0.6-0.6,1.5-1.2,2.5c-0.5,1-1.3,2.3-2.3,3.8c-1,1.5-2.5,3.4-4.5,5.7
				c0.4,3,0.9,5.7,1.6,8.1c0.7,2.5,1.4,4.6,2,6.4c0.8,2.2,1.6,4.2,2.5,6c1.2,2.3,2.4,4.7,3.7,7.2c1.3,2.5,2.5,4.9,3.5,7.3
				c1,2.4,1.9,4.6,2.5,6.7c0.6,2.1,0.8,3.8,0.6,5.2c-0.4,2.2-1.5,4.8-3.4,7.9c-1.9,3.1-4.2,6.1-7,9c-2.8,2.9-5.9,5.4-9.5,7.5
				c-3.6,2.1-7.3,3.1-11.1,3.1c-2.7,0-5.3-0.8-7.8-2.5c-2.5-1.7-4.6-3.6-6.4-5.9c-1.7-2.3-3-4.5-3.9-6.7c-0.8-2.2-0.9-3.9-0.3-5
				c0.8-1.5,1.5-2.8,2.1-3.7c0.6-0.9,1.6-1.9,2.9-3.1c0.5-0.4,1.2-0.8,1.9-1.4c0.6-0.4,1.5-0.8,2.7-1.2c1.2-0.4,2.5-0.8,4.1-1.4
				c1.3,4,2.5,7.1,3.5,9.4c1,2.3,1.9,4,2.5,5.3C765.7,442.8,766.4,443.8,767.1,444.3z"/>
			<path class="st0" d="M964.3,412.3c-1.8,2.6-4.1,5.8-7,9.6c-2.8,3.8-5.8,7.6-8.8,11.4c-3,3.8-6,7.3-8.9,10.5
				c-2.9,3.2-5.3,5.4-7.3,6.7c-1.3,0.8-2.8,1.4-4.5,1.9c-1.7,0.5-3.4,0.8-5.1,1c-1.7,0.1-3.4,0-4.9-0.3c-1.5-0.3-2.9-0.9-4.1-1.6
				c-1.2-0.9-2.1-2.2-2.9-3.9c-0.6-1.4-1.3-3.3-1.8-5.6c-0.6-2.3-0.8-5.2-0.7-8.7c-3.1,5.2-6.5,9.1-10.3,11.9
				c-3.7,2.8-7.3,4.8-10.6,6.1c-3.9,1.4-7.7,2.3-11.6,2.5c-1.8,0-3.7-0.6-5.8-1.8c-2.1-1.2-3.8-3.2-5.2-5.8
				c-1.4-2.6-2.3-6.1-2.7-10.3c-0.4-4.2,0.1-9.2,1.5-15c1.8-7.9,4.7-15,8.6-21.5c3.9-6.4,8.2-12,12.9-16.5c4.6-4.6,9.2-8,13.7-10.4
				c4.5-2.3,8.3-3.4,11.2-3.1c3.5,0.6,6.3,1.7,8.5,3.1c1.8,1.3,3,3.2,3.6,5.7c0.6,2.5-0.5,5.8-3.2,10c1.8-0.4,3.3-0.6,4.5-0.8
				c1.2-0.1,2.2-0.2,2.8-0.2c0.8,0,1.3,0.1,1.5,0.2c0.1,0.3,0.2,0.8,0.2,1.6c0,0.8-0.2,2.4-0.6,4.5c-0.4,2.2-1,5.2-1.7,8.9
				c-0.8,3.7-1.8,8.6-3.1,14.5c-0.3,1.2-0.5,2.2-0.7,3.2c-0.2,1-0.4,1.9-0.6,2.9c-0.2,1-0.4,2.1-0.7,3.4c-0.3,1.3-0.6,2.9-1,4.8
				c-0.1,1.2-0.2,2.4-0.1,3.8c0.1,1.4,0.3,2.6,0.7,3.8s1,2.1,1.8,2.8c0.8,0.7,2,1.1,3.6,1.1c1.3,0,3-0.8,5-2.4
				c2.1-1.6,4.3-3.7,6.6-6.2c2.3-2.5,4.7-5.3,7.3-8.3c2.5-3,4.9-6,7.1-8.8c2.2-2.8,4.2-5.4,5.9-7.5c1.7-2.2,3-3.8,3.8-4.8
				c1-1.2,2.1-1.8,3.1-2c1-0.2,1.8,0.1,2.3,0.9c0.5,0.8,0.6,1.9,0.3,3.5C966.8,408.5,965.9,410.3,964.3,412.3z M907.6,420.9
				c0.6-2.6,1.4-5.6,2.3-9.1c0.9-3.5,1.7-6.8,2.3-10.1c0.6-3.2,1.1-5.9,1.5-8c0.3-2.1,0.2-3.1-0.3-3c-0.6,0.1-1.4,0.3-2.1,0.6
				c-0.6,0.3-1.5,0.5-2.5,0.6c-1,0.1-2.1,0.3-3.1,0.6c1-2.1,1.6-3.8,1.8-5.1c0.2-1.4,0.2-2.4,0.1-3.2c-0.1-0.9-0.4-1.6-0.8-2.1
				c-1.4-1.2-3.9-0.2-7.5,2.8c-3.6,3-7.6,8.6-12.3,16.7c-1.9,3.4-3.5,6.9-4.6,10.7c-1.2,3.8-2,7.4-2.4,10.7
				c-0.5,3.4-0.6,6.3-0.3,8.8c0.3,2.5,0.8,4.2,1.5,4.9c1.4,1.4,3,2.1,4.8,2c1.8-0.1,3.6-0.6,5.5-1.5c1.9-1,3.7-2.2,5.6-3.8
				c1.9-1.5,3.5-3.2,5-4.8c1.5-1.7,2.7-3.2,3.7-4.6C906.9,422.5,907.5,421.5,907.6,420.9z"/>
			<path class="st0" d="M1008.8,455.7c-3,0-5.5-0.6-7.6-1.6c-2.1-1.1-3.8-2.5-5.1-4.4c-1.3-1.8-2.1-3.9-2.5-6.3
				c-0.4-2.4-0.3-4.9,0.4-7.6c0.4-1.8,1-4.2,1.9-7.3c0.9-3,1.8-6.3,2.8-9.9c1-3.5,1.9-7.1,2.7-10.6c0.8-3.5,1.4-6.8,1.6-9.7
				c0.3-2.9,0.1-5.3-0.4-7.2c-0.5-1.9-1.6-2.8-3.3-2.8c-2.1,0-4.2,0.7-6.4,2c-2.2,1.4-4.4,3.2-6.7,5.5c-2.3,2.3-4.5,5-6.8,8
				c-2.3,3-4.5,6.2-6.7,9.4c-1.2,4.4-2.1,8.2-2.9,11.5c-0.8,3.3-1.5,6.3-2,8.9c-0.6,2.6-1.1,5-1.6,7c-0.5,2-1,3.9-1.4,5.7
				c-0.4,1.3-1.5,2.5-3.5,3.8c-1.9,1.2-4,2.2-6.2,3c-2.2,0.8-4.1,1.2-5.7,1.2c-1.6,0-2.3-0.6-2-1.7c0.1-0.8,0.6-2.5,1.3-5.2
				c0.7-2.7,1.5-5.9,2.5-9.6c1-3.7,2-7.6,3-11.7c1-4.1,2-8.1,2.9-11.8c0.6-3,1.4-6.3,2.1-9.9c0.6-3.1,1.5-6.7,2.4-10.8
				c1-4.1,2.1-8.6,3.4-13.5c0.9-0.8,1.8-1.4,2.8-1.8c1-0.5,2-0.8,3-1.1c1-0.4,2.1-0.6,3.3-0.8c1,0,2.1,0.1,3.1,0.2
				c0.9,0.1,1.8,0.4,2.8,0.7c1,0.3,1.8,0.8,2.6,1.5c-0.4,0.9-0.8,2.2-1.4,3.8c-0.5,1.6-1,3.3-1.5,5.1c-0.5,2.1-1.2,4.2-1.9,6.4
				c1.7-2.3,3.6-4.7,5.7-7.1c2.1-2.4,4.5-4.5,7-6.5c2.5-1.9,5.2-3.5,8-4.7c2.8-1.2,5.7-1.8,8.7-1.8c2.4,0,4.6,0.7,6.6,2.1
				c1.9,1.4,3.5,3.4,4.5,5.9c1.1,2.5,1.7,5.5,1.9,9c0.2,3.5-0.3,7.3-1.5,11.4l-2.1,8.5c-0.6,2.7-1.5,5.9-2.4,9.6
				c-1,3.7-2.2,7.7-3.6,12.1c-0.8,2.8-1.1,5.3-0.9,7.4c0.2,2.1,1.5,3.1,3.8,3.1c2.3,0,5.3-1.4,8.8-4.3c3.5-2.8,7.1-6.3,10.7-10.3
				c3.6-4,7-8.1,10.3-12.3c3.2-4.2,5.7-7.6,7.4-10.2c1.2-1.7,2.3-2.8,3.3-3.3c1-0.5,1.8-0.6,2.4-0.2c0.6,0.4,0.9,1.3,0.9,2.6
				s-0.5,3.1-1.5,5.1c-0.9,1.8-2.3,4.2-4.2,7.2c-1.9,3-4.1,6.1-6.7,9.5c-2.6,3.4-5.4,6.7-8.3,10.2c-3,3.4-6.1,6.5-9.3,9.3
				c-3.2,2.8-6.4,5-9.6,6.8C1014.7,454.8,1011.7,455.7,1008.8,455.7z"/>
			<path class="st0" d="M1104.5,413.9c-0.6,4-1.3,7.8-1.8,11.4c-0.6,3.6-0.9,6.5-1.1,8.7c-0.1,3.2,0.5,5.5,1.7,7
				c1.3,1.4,2.7,2.1,4.3,2.1c1.8,0,4-0.9,6.7-2.7c2.6-1.8,5.4-4.1,8.4-6.8c3-2.7,5.9-5.7,8.9-8.9c3-3.2,5.7-6.3,8.2-9.2
				c2.5-2.9,4.6-5.4,6.4-7.6c1.7-2.2,2.9-3.6,3.6-4.3c0.8-0.8,1.6-1.2,2.4-1.4c0.8-0.1,1.5,0,2,0.4c0.5,0.4,0.8,1.1,0.8,2.1
				c0,1-0.5,2.3-1.5,3.9c-1.5,2.5-3.5,5.3-6,8.6c-2.5,3.3-5.2,6.7-8.1,10.2c-3,3.5-6.1,6.9-9.4,10.3c-3.3,3.4-6.6,6.3-9.9,8.9
				c-3.3,2.6-6.5,4.7-9.5,6.3c-3,1.6-5.8,2.4-8.2,2.4c-1.8,0-3.5-0.5-5.1-1.5c-1.6-1-3.1-2.4-4.4-4.1c-1.3-1.7-2.3-3.5-3-5.6
				c-0.7-2.1-1-4.1-0.9-6.2c0.1-0.9,0.3-2.4,0.6-4.6c-5.4,6.1-10.9,10.9-16.4,14.4c-5.5,3.5-10.7,5.3-15.8,5.3
				c-1.8,0-3.7-0.5-5.8-1.4c-2.1-0.9-3.9-2.4-5.5-4.5c-1.6-2.1-2.9-4.8-4-8.1c-1-3.4-1.4-7.4-1.2-12.2c0.4-7.5,1.9-14.6,4.5-21.3
				c2.6-6.7,5.8-12.5,9.8-17.5c3.9-5,8.4-8.9,13.4-11.8c5-2.9,10-4.4,15-4.4c2.2,0,4.2,0.5,6,1.6c1.8,1.1,3.4,2.5,4.6,4.3
				c1.3,1.7,2.4,3.6,3.2,5.7c0.8,2.1,1.5,4,1.8,5.8c0.9-3.7,1.7-7.4,2.5-11c0.8-3.6,1.5-7,2.3-10.3c1.3-4.8,2.6-9.9,4.1-15.5
				c1.3-4.8,2.8-10.3,4.5-16.5c1.7-6.2,3.5-12.7,5.6-19.6c1.3-1,2.5-1.8,3.7-2.3c1.2-0.5,2.3-0.9,3.3-1.2c1.2-0.4,2.3-0.6,3.3-0.6
				c1.3,0,2.4,0.2,3.5,0.5c1,0.3,1.9,1.2,2.6,2.5c0.7,1.4,1.2,3.4,1.5,6.1c0.3,2.7,0.3,6.4,0,11c-0.3,5.7-1.3,11.9-3,18.6
				c-1.7,6.7-4,13.6-6.9,20.8c-2.8,7.2-6.1,14.3-9.8,21.5C1112.7,400.6,1108.7,407.4,1104.5,413.9z M1093,416.4
				c0.5-2.4,1-4.9,1.5-7.4c0.5-2.4,1-5,1.6-7.5c-0.3,0.1-0.5,0.3-0.7,0.4c-0.2,0.1-0.4,0.3-0.7,0.4c-1.4,0.6-2.4,0.6-2.9-0.1
				c-0.5-0.7-0.8-1.8-0.8-3.4c0-0.8-0.1-2.2-0.2-4.2c-0.1-2-0.5-4.1-1.1-6.2c-0.6-2.1-1.5-4-2.6-5.6c-1.2-1.6-2.8-2.4-4.8-2.4
				c-3,0-6,1.5-9.1,4.5c-3.1,3-6,6.7-8.7,11c-2.7,4.3-5,8.9-6.8,13.8c-1.8,4.9-2.8,9.3-3.1,13.2c-0.3,6.2,0.5,10.6,2.3,13.4
				c1.8,2.7,4.3,4.1,7.4,4.1c2.3,0,4.9-0.9,7.6-2.7c2.8-1.8,5.5-4,8.1-6.6c2.6-2.6,5.1-5.2,7.4-7.9
				C1089.8,420.5,1091.6,418.2,1093,416.4z"/>
			<path class="st0" d="M1206.1,329.7c-1.5,0.5-2.7,0.6-3.5,0.2c-0.8-0.4-1.4-1-1.7-1.9c-0.4-0.9-0.6-1.9-0.6-3
				c0-1.1,0.1-2.2,0.2-3.2c0.1-0.9,0.4-1.9,0.7-3.1c0.3-1.2,0.7-2.3,1.3-3.3c0.5-1,1.1-1.9,1.8-2.6c0.7-0.7,1.6-1.2,2.8-1.5
				c5.9-1,11.7-1.8,17.3-2.3c5.6-0.5,10.7-0.9,15.2-1.2c5.2-0.4,10.1-0.6,14.9-0.6c1,0,2.1,0,3.1,0.1c1,0.1,2.1,0.1,3.1,0.1
				c1.2-0.3,2.1-0.4,2.8-0.3c0.7,0.1,1.3,0.2,1.8,0.3c3.7,0.1,7.6,0.3,11.6,0.6c3.4,0.3,7.1,0.6,11.3,0.9c4.2,0.3,8.4,0.7,12.5,1.3
				c0.4,1,0.5,2.3,0.2,3.9c-0.1,0.8-0.3,1.5-0.4,2.3c-0.1,0.8-0.5,1.5-1,2.1c-0.4,0.6-0.9,1.3-1.5,1.8c-0.6,0.6-1.3,1.1-2,1.5
				c-4.4-0.1-8.6-0.2-12.7-0.3c-4.1-0.1-7.6-0.1-10.7-0.1h-10.5c-1.7,5.9-3.7,13.3-6.2,22c-2.5,8.7-4.9,17.9-7.5,27.5
				c-2.5,9.6-4.9,19.2-7.2,28.6c-2.3,9.5-4,18-5.3,25.6c-1.3,7.4-2.6,14.6-3.9,21.7c-0.5,3-1.1,6.1-1.6,9.3
				c-0.6,3.2-1.1,6.4-1.5,9.5c-0.5,3.1-0.9,6.1-1.3,8.9c-0.4,2.8-0.7,5.4-1,7.7c-2.1,1-4,1.8-5.8,2.4c-1.8,0.6-3.4,1-4.8,1.3
				c-1.7,0.4-3.2,0.6-4.6,0.6c-3.1,0-5-0.4-5.7-1.1c-0.7-0.7-0.8-2.1-0.3-4.2c0.4-1.8,1.5-6.7,3.5-14.7c0.8-3.4,1.8-7.6,3-12.7
				c1.2-5.1,2.7-11.3,4.4-18.6c1.7-7.3,3.7-15.8,6-25.6c2.3-9.7,5-20.9,7.9-33.6l13-53.8c-3.9,0.5-7.7,1.1-11.4,1.7
				c-3.7,0.6-7.3,1.3-10.5,2c-3.3,0.7-6.3,1.4-8.9,2C1209.7,328.8,1207.6,329.3,1206.1,329.7z"/>
			<path class="st0" d="M1270.9,449.9c-0.9,1.4-1.9,2.4-3,2.8c-1.1,0.5-2.1,0.5-2.9,0.2c-0.8-0.3-1.4-1-1.6-2c-0.3-1,0-2.3,0.8-3.9
				c0.4-0.8,1.3-2.5,2.6-5.2s3-6,4.8-9.8c1.9-3.8,3.9-7.9,6.1-12.4c2.2-4.5,4.3-8.7,6.3-12.7c2-4,3.8-7.6,5.5-10.7
				c1.7-3.2,2.9-5.4,3.7-6.9c-1.4-1.3-2.4-2.2-2.9-2.8c-0.5-0.6-0.9-1.8-1.2-3.8c-0.3-1.7,0.1-3.9,1.2-6.6c1-2.7,2.4-5.3,4.1-7.8
				c1.7-2.5,3.5-4.7,5.6-6.5c2.1-1.8,4.1-2.7,6-2.7c3.6,0,6.2,1.2,7.6,3.5c1.5,2.3,2.4,4.7,2.6,7.2c0.3,1.7,0.1,3.8-0.4,6.4
				c-0.5,2.6-1.5,4.9-2.9,7c0.4,0.3,0.9,0.6,1.5,0.9c0.6,0.3,1.7,0.5,3.1,0.5c2.1,0,3.5-0.1,4.4-0.4c0.8-0.3,2.2-0.4,4-0.4
				c2.2,0,4,0.6,5.4,1.6c1.4,1.1,2.6,2.5,3.5,4.1c0.9,1.6,1.6,3.4,2,5.2c0.5,1.9,0.7,3.6,0.9,5.1c0.4,3.2-0.5,6.6-2.5,10.1
				c-2.1,3.5-4.6,7.3-7.5,11.4c-1.8,2.6-3.6,5.5-5.4,8.7c-1.8,3.2-2.6,6.1-2.3,8.7c0.3,1.7,0.7,3,1.4,4.1c0.6,1,2.4,1.5,5.4,1.5
				c2.2,0,4.6-0.8,7.3-2.4c2.6-1.6,5.4-3.7,8.1-6.2c2.8-2.5,5.5-5.3,8.2-8.3c2.7-3,5.2-6,7.5-8.9c2.3-2.9,4.3-5.5,5.9-7.8
				c1.6-2.3,2.8-4,3.6-5c0.6-1,1.5-1.7,2.5-2.1c1-0.4,1.9-0.4,2.7,0c0.8,0.4,1.3,1.2,1.5,2.3c0.2,1.2-0.3,2.7-1.5,4.6
				c-0.8,1.3-2.1,3.4-4,6.2c-1.9,2.8-4.1,6-6.8,9.5c-2.6,3.5-5.6,7.1-8.8,10.7c-3.2,3.7-6.6,7-10.2,10.1c-3.6,3-7.1,5.5-10.6,7.5
				c-3.5,1.9-6.9,2.9-10.2,2.9c-3.4,0-6.1-0.6-8.3-1.9c-2.2-1.3-4-2.9-5.3-4.7c-1.4-1.9-2.3-3.9-2.9-6.2c-0.6-2.3-0.8-4.4-0.7-6.3
				c0.1-1.5,0.5-3.2,1.3-4.9c0.7-1.7,1.5-3.5,2.5-5.4c1-1.9,2-3.7,3.1-5.6c1.1-1.9,2.1-3.7,3-5.5c2.2-3.7,4-6.9,5.3-9.6
				c1.4-2.6,2-4.9,2-6.7c0-1.2-0.3-2.2-0.8-3.1c-0.5-0.9-1.4-1.4-2.5-1.4c-0.8,0-1.3,0-1.6,0.1c-0.3,0.1-0.6,0.1-1,0.1
				c-0.3,0-0.8,0-1.4,0.1c-0.6,0.1-1.5,0.1-2.6,0.1c-1.7,0-3.1-0.3-4.3-0.8c-1.2-0.5-2.3-0.9-3.3-1.2c-0.5,0.9-1.7,2.8-3.5,5.8
				c-1.8,3-3.9,6.5-6.3,10.5c-2.4,4-4.9,8.2-7.5,12.6c-2.6,4.4-5.1,8.5-7.5,12.3c-2.3,3.8-4.3,7-5.9,9.7
				C1272.3,447.8,1271.3,449.4,1270.9,449.9z"/>
			<path class="st0" d="M1458.1,412.3c-1.8,2.6-4.1,5.8-7,9.6c-2.8,3.8-5.8,7.6-8.8,11.4c-3,3.8-6,7.3-8.9,10.5
				c-2.9,3.2-5.3,5.4-7.3,6.7c-1.3,0.8-2.8,1.4-4.5,1.9c-1.7,0.5-3.4,0.8-5.1,1c-1.7,0.1-3.4,0-4.9-0.3c-1.5-0.3-2.9-0.9-4.1-1.6
				c-1.2-0.9-2.1-2.2-2.9-3.9c-0.6-1.4-1.3-3.3-1.8-5.6c-0.6-2.3-0.8-5.2-0.7-8.7c-3.1,5.2-6.5,9.1-10.3,11.9
				c-3.7,2.8-7.3,4.8-10.6,6.1c-3.9,1.4-7.7,2.3-11.6,2.5c-1.8,0-3.7-0.6-5.8-1.8c-2.1-1.2-3.8-3.2-5.2-5.8s-2.3-6.1-2.7-10.3
				c-0.4-4.2,0.1-9.2,1.5-15c1.8-7.9,4.7-15,8.6-21.5c3.9-6.4,8.2-12,12.9-16.5c4.6-4.6,9.2-8,13.7-10.4c4.5-2.3,8.3-3.4,11.2-3.1
				c3.5,0.6,6.3,1.7,8.5,3.1c1.8,1.3,3,3.2,3.6,5.7c0.6,2.5-0.5,5.8-3.2,10c1.8-0.4,3.3-0.6,4.5-0.8c1.2-0.1,2.2-0.2,2.8-0.2
				c0.8,0,1.3,0.1,1.5,0.2c0.1,0.3,0.2,0.8,0.2,1.6c0,0.8-0.2,2.4-0.6,4.5c-0.4,2.2-1,5.2-1.7,8.9c-0.8,3.7-1.8,8.6-3.1,14.5
				c-0.3,1.2-0.5,2.2-0.7,3.2c-0.2,1-0.4,1.9-0.6,2.9c-0.2,1-0.4,2.1-0.7,3.4c-0.3,1.3-0.6,2.9-1,4.8c-0.1,1.2-0.2,2.4-0.1,3.8
				c0.1,1.4,0.3,2.6,0.7,3.8c0.4,1.2,1,2.1,1.8,2.8c0.8,0.7,2,1.1,3.6,1.1c1.3,0,3-0.8,5-2.4c2.1-1.6,4.3-3.7,6.6-6.2
				c2.3-2.5,4.7-5.3,7.3-8.3c2.5-3,4.9-6,7.1-8.8c2.2-2.8,4.2-5.4,5.9-7.5c1.7-2.2,3-3.8,3.8-4.8c1-1.2,2.1-1.8,3.1-2
				c1-0.2,1.8,0.1,2.3,0.9c0.5,0.8,0.6,1.9,0.3,3.5C1460.6,408.5,1459.6,410.3,1458.1,412.3z M1401.4,420.9c0.6-2.6,1.4-5.6,2.3-9.1
				c0.9-3.5,1.7-6.8,2.3-10.1c0.6-3.2,1.1-5.9,1.5-8c0.3-2.1,0.2-3.1-0.3-3c-0.6,0.1-1.4,0.3-2.1,0.6c-0.6,0.3-1.5,0.5-2.5,0.6
				c-1,0.1-2.1,0.3-3.1,0.6c1-2.1,1.6-3.8,1.8-5.1c0.2-1.4,0.2-2.4,0.1-3.2c-0.1-0.9-0.4-1.6-0.8-2.1c-1.4-1.2-3.9-0.2-7.5,2.8
				c-3.6,3-7.6,8.6-12.3,16.7c-1.9,3.4-3.5,6.9-4.6,10.7c-1.2,3.8-2,7.4-2.4,10.7c-0.5,3.4-0.6,6.3-0.3,8.8c0.3,2.5,0.8,4.2,1.5,4.9
				c1.4,1.4,3,2.1,4.8,2c1.8-0.1,3.6-0.6,5.5-1.5c1.9-1,3.7-2.2,5.6-3.8c1.9-1.5,3.5-3.2,5-4.8c1.5-1.7,2.7-3.2,3.7-4.6
				C1400.7,422.5,1401.3,421.5,1401.4,420.9z"/>
			<path class="st0" d="M1501.8,416.4c-3.4,4.9-6.8,9.7-10.4,14.3c-3.6,4.6-7,8.8-10.3,12.5c-3.3,3.7-6.3,6.6-9.1,8.9
				c-2.8,2.3-5,3.4-6.7,3.4c-4,0-7.3-1.9-9.8-5.7c-2.5-3.8-4.5-8.5-5.8-14.1c-1.4-5.6-2.2-11.6-2.5-18c-0.3-6.4-0.3-12.1,0.1-17.1
				c0.5-5,1.1-9.1,1.7-12.1c0.6-3,1.5-5.4,2.4-7.1c1-1.7,2.1-2.9,3.5-3.7c1.4-0.8,3.1-1.4,5.1-1.9c0.9-0.3,1.9-0.5,3.1-0.6
				c1.2-0.1,2.2-0.1,3.2,0.1c1,0.2,1.7,0.6,2.2,1.3c0.5,0.6,0.6,1.6,0.2,2.9c-0.3,1.2-0.7,2.9-1.3,5.1c-0.6,2.3-1.2,4.8-1.8,7.6
				c-0.6,2.8-1.3,5.8-1.8,8.9c-0.6,3.1-1,6.1-1.3,8.9c-0.4,4.9-0.4,9.2,0,12.9c0.4,3.7,1,6.8,1.7,9.3c0.8,2.5,1.6,4.4,2.5,5.7
				c0.9,1.3,1.6,1.9,2.1,1.9c0.6,0,1.8-0.9,3.6-2.6c1.7-1.7,3.7-4,6-6.9c2.3-2.8,4.6-6.1,7.2-9.9c2.5-3.7,4.9-7.6,7.1-11.6
				c-0.8-2.1-1.1-4.5-1-7.4c0.4-4.4,1.4-8.4,2.9-11.9c1.5-3.5,3.3-6.5,5.3-9c2-2.4,4.1-4.4,6.2-5.7c2.1-1.4,4-2,5.7-2
				c3.4,0,5.4,0.9,6.3,2.6c0.8,1.7,1.1,3.5,0.9,5.3c-0.3,2.7-1.5,6.4-3.6,11.1c-2.1,4.7-4.9,9.8-8.2,15.4c0.6,0.3,1.4,0.5,2.1,0.8
				c0.8,0.3,1.7,0.4,2.7,0.4c4.4,0,8.4-0.5,11.9-1.5c3.5-1,6.6-2.3,9.3-3.7c2.6-1.4,4.9-2.9,6.8-4.6c1.9-1.6,3.4-2.9,4.5-4
				c0.8-0.8,1.5-1.2,2.3-1.2c0.8,0,1.4,0.2,1.9,0.6c0.5,0.4,0.8,1,0.8,1.7c0,0.8-0.4,1.6-1.2,2.5c-4.6,5.7-10.3,10.3-16.9,13.7
				c-6.6,3.5-14.4,5.2-23.3,5.2c-0.8,0-1.7-0.1-2.9-0.2C1504.4,417.1,1503.1,416.8,1501.8,416.4z"/>
			<path class="st0" d="M1617.6,410.6c-3.9,5.7-8.3,11.2-13.2,16.6c-4.9,5.4-10.1,10.1-15.6,14.3c-5.5,4.2-11.1,7.6-16.8,10.2
				c-5.7,2.6-11.3,3.9-16.7,3.9c-2.8,0-5.9-0.7-9.2-2c-3.3-1.4-6.3-3.5-9-6.3c-2.7-2.8-4.9-6.5-6.5-11s-2.1-10-1.5-16.5
				c0.5-5.3,2.2-10.9,4.9-16.7c2.8-5.9,6.2-11.3,10.3-16.2c4.1-4.9,8.6-9,13.7-12.2c5.1-3.2,10.2-4.8,15.4-4.8
				c4.9,0,8.5,1.2,10.6,3.7c2.2,2.5,3.2,5.5,2.9,9.1c-0.4,4-1.5,7.7-3.4,11c-1.9,3.4-4.1,6.4-6.7,9.1c-2.6,2.7-5.3,5.2-8.2,7.4
				c-2.9,2.2-5.6,4.2-8.2,6c-2.8,1.9-5.5,3.8-8.1,5.5c-2.6,1.7-4.8,3.3-6.8,4.7c0.1,3.2,0.7,5.9,1.7,8.1c1,2.2,2.3,4,3.9,5.3
				c1.5,1.4,3.3,2.3,5.3,2.9c2,0.6,4,0.9,6.1,0.9c4.4,0,9-1.4,13.7-4.2c4.8-2.8,9.5-6.1,14-10.1c4.6-3.9,8.8-8,12.8-12.3
				c3.9-4.3,7.2-7.9,9.8-11c0.9-1,1.8-1.6,2.8-1.8c1-0.2,1.7-0.1,2.3,0.4c0.6,0.5,0.9,1.2,0.9,2.3
				C1618.9,407.9,1618.5,409.2,1617.6,410.6z M1568,380.8c-1.5,0-3.4,0.8-5.5,2.3c-2.1,1.5-4.2,3.8-6.3,6.7c-2.1,2.9-4,6.5-5.8,10.6
				c-1.8,4.2-3.2,9-4.1,14.4c1.5-1.2,3.2-2.4,5-3.6c1.8-1.2,3.6-2.5,5.4-4c5.5-4.3,9.4-8,11.6-11.2c2.2-3.2,3.4-6,3.7-8.3
				c0.3-2.4,0-4.2-0.8-5.3C1570.6,381.3,1569.5,380.8,1568,380.8z"/>
			<path class="st0" d="M1600.8,447.8c5.7-23.9,10.2-43,13.6-57.5c3.4-14.5,6-25.5,7.8-33.1c2.1-9,3.5-15.3,4.3-18.8
				c0.4-2.4,0.7-4.8,1-7.2c0.3-2.1,0.4-4.2,0.4-6.4c0-2.2-0.2-4.2-0.6-6c1-0.6,2.2-1.2,3.4-1.5c1.2-0.4,2.4-0.7,3.6-1
				c1.4-0.4,2.8-0.7,4.3-1c1.4-0.3,2.7-0.4,3.9-0.4c1,0,2,0.1,2.9,0.3c0.9,0.2,1.5,0.6,1.7,1.3c0.8,0.6,1.1,1.9,1.1,3.9
				c-0.1,1.9-0.2,3.9-0.5,6c-0.5,2.5-1.1,5.1-1.7,7.9c-1.5,5.5-3.7,13.5-6.4,24c-2.3,8.9-5.5,21-9.4,36.4
				c-3.9,15.4-8.9,34.7-14.8,58.1c-0.6,0.6-1.4,1.1-2.3,1.4c-0.9,0.3-1.7,0.4-2.5,0.4c-0.9,0-1.9-0.1-2.9-0.2
				c-0.9-0.3-1.8-0.6-2.7-1.2c-0.8-0.5-1.5-1.2-2.3-2C1601.7,450.3,1601.1,449.2,1600.8,447.8z"/>
			<path class="st0" d="M1674.3,444.3c0.8,0.5,1.8,0.8,3,0.8c1.2,0,2.5-0.3,3.7-0.8c1.2-0.5,2.4-1.2,3.5-2.1
				c1.1-0.9,1.9-2.1,2.4-3.5c0.5-1.4,0.5-3.5,0-6.1c-0.5-2.6-1.3-5.5-2.4-8.5c-1.1-3-2.3-6.1-3.6-9.2c-1.3-3.1-2.4-5.9-3.3-8.5
				c-0.8-1.9-1.4-3.7-1.9-5.4c-0.5-1.4-1-2.8-1.5-4.2c-0.5-1.4-0.8-2.3-1.1-2.8c-0.6,1-1.8,2.7-3.4,5c-1.6,2.3-3.4,4.7-5.2,7.3
				c-1.9,2.5-3.6,4.8-5.3,7c-1.7,2.1-2.8,3.6-3.5,4.4c-1,1.2-2,1.8-3,2c-1,0.2-1.8,0-2.4-0.6c-0.6-0.6-1-1.4-1.1-2.5
				c-0.1-1.1,0.4-2.4,1.5-4c0.8-1,1.9-2.7,3.5-4.9c1.5-2.3,3.1-4.6,4.6-7c1.5-2.4,3-4.5,4.3-6.4c1.3-1.9,2-3,2.1-3.4
				c0.3-1-0.1-2.4-1.1-4.1c-1-1.7-1.1-3.6-0.5-5.8c0.5-1.8,1.7-3.9,3.5-6.3c1.8-2.4,3.9-4.5,6.4-6.5c2.4-1.9,5-3.4,7.5-4.4
				c2.6-1,4.9-0.9,7,0.1c1.7,1,3,2.2,4.1,3.4c1,1.2,1.4,2.5,1.2,3.8c-0.3,0.6-0.6,1.5-1.2,2.5c-0.5,1-1.3,2.3-2.3,3.8
				c-1,1.5-2.5,3.4-4.5,5.7c0.4,3,0.9,5.7,1.6,8.1c0.7,2.5,1.4,4.6,2,6.4c0.8,2.2,1.6,4.2,2.5,6c1.2,2.3,2.4,4.7,3.7,7.2
				c1.3,2.5,2.5,4.9,3.5,7.3c1,2.4,1.9,4.6,2.5,6.7c0.6,2.1,0.8,3.8,0.6,5.2c-0.4,2.2-1.5,4.8-3.4,7.9c-1.9,3.1-4.2,6.1-7,9
				c-2.8,2.9-5.9,5.4-9.5,7.5c-3.6,2.1-7.3,3.1-11.1,3.1c-2.7,0-5.3-0.8-7.8-2.5c-2.5-1.7-4.6-3.6-6.4-5.9c-1.7-2.3-3-4.5-3.9-6.7
				c-0.8-2.2-0.9-3.9-0.3-5c0.8-1.5,1.5-2.8,2.1-3.7c0.6-0.9,1.6-1.9,2.9-3.1c0.5-0.4,1.2-0.8,1.9-1.4c0.6-0.4,1.5-0.8,2.7-1.2
				c1.2-0.4,2.5-0.8,4.1-1.4c1.3,4,2.5,7.1,3.5,9.4c1,2.3,1.9,4,2.5,5.3C1673,442.8,1673.7,443.8,1674.3,444.3z"/>
		</g>
	</g>
</g>
</svg>
